# xmcd
# 
# Track frame offsets:
#     150
#     13906
#     21479
#     31750
#     44822
#     58852
#     73701
#     86770
#     99786
#     111333
#     128283
#     139178
#     147074
# 
# Disc length: 2259
# 
# Revision: 2
# Processed by: cddbd v1.5.2PL0 Copyright (c) Steve Scherf et al.
# Submitted via: fre:ac v1.0.17
# 
DISCID=b508d10d
DTITLE=Various Artist - Fado and the city 1_3
DYEAR=2000
DGENRE=Fado
TTITLE0=Alexandra - Amor Maior
TTITLE1=Fernando Mauricio - Tao Mentirosa
TTITLE2=Fernanda Maria - As Padras Da Minha Rua
TTITLE3=Maria Armanda - Rose Livre
TTITLE4=Rodrigo - Paleta De Fado Novo
TTITLE5=Joao Baraza - Parei A Porta De Um Bar
TTITLE6=Manuel De Almeida - Maria Triste
TTITLE7=Lidia Ribeiro - E Noite Na Mouraria
TTITLE8=Alfredo Duarte Junior - Assim Nasceu Um Fado
TTITLE9=Odete Mendes - A Nossa Rua
TTITLE10=Jorge Fontes - Pensando Em Ti
TTITLE11=Tina Santos - Quando Voltares
TTITLE12=Fernando Mauricio and Francisco Martinho - O Fado Em Duas Almas
EXTD=
EXTT0=
EXTT1=
EXTT2=
EXTT3=
EXTT4=
EXTT5=
EXTT6=
EXTT7=
EXTT8=
EXTT9=
EXTT10=
EXTT11=
EXTT12=
PLAYORDER=
